<?xml version="1.0" encoding="UTF-8"?>
<svg xmlns="http://www.w3.org/2000/svg" xmlns:xlink="http://www.w3.org/1999/xlink" width="375pt" height="374.999991pt" viewBox="0 0 375 374.999991" version="1.2">
<defs>
<clipPath id="clip1">
  <path d="M 5 8.070312 L 365.25 8.070312 L 365.25 302.070312 L 5 302.070312 Z M 5 8.070312 "/>
</clipPath>
</defs>
<g id="surface1">
<g clip-path="url(#clip1)" clip-rule="nonzero">
<path style=" stroke:none;fill-rule:nonzero;fill:rgb(8.628845%,11.369324%,43.528748%);fill-opacity:1;" d="M 117.742188 8.070312 L 123.675781 8.070312 C 127.097656 9.859375 128.410156 13.71875 129.984375 17.007812 C 144.320312 50.117188 158.582031 83.300781 169.4375 117.773438 C 171.46875 125.296875 180.296875 117.640625 184.941406 117.445312 C 194.804688 112.425781 204.515625 119.140625 214.523438 118.476562 C 239.078125 104.867188 263.59375 90.695312 289.816406 80.496094 C 311.371094 74.839844 333.816406 64.714844 356.460938 69.683594 C 359.886719 70.609375 364.367188 71.332031 365.144531 75.503906 L 365.144531 78.769531 C 322.265625 137.378906 270.402344 191.230469 216.023438 237.828125 C 241.15625 248 268.304688 233.941406 287.589844 217.78125 C 291.851562 214.90625 307.765625 209.988281 304.40625 219.695312 C 292.75 235.859375 270.761719 238.898438 252.757812 244.261719 C 247.40625 246.34375 238.496094 243.679688 235.824219 250.113281 C 250.617188 251.335938 265.265625 249.039062 279.652344 245.957031 C 297.945312 245.269531 311.46875 230.808594 327.558594 224.613281 C 332.066406 230.351562 319.734375 236.613281 317.605469 241.867188 C 295.976562 256.828125 267.976562 254.984375 242.933594 257.109375 C 236.234375 254.164062 233.890625 260.871094 230.425781 264.683594 C 225.527344 266.3125 220.070312 265.429688 215.007812 265.257812 C 210.78125 265.363281 212.527344 257.777344 207.816406 258.855469 C 196.191406 267.035156 189.152344 281.050781 189.832031 295.332031 C 182.25 294.757812 184.171875 284.011719 186.121094 279.222656 C 187.761719 275.996094 192.773438 267.894531 184.941406 269.410156 C 177.0625 274.109375 173.523438 283.289062 171.140625 291.71875 C 170.648438 293.621094 168.230469 293.234375 166.871094 292.621094 C 165.832031 283.734375 172.523438 276.265625 175.390625 268.3125 C 175.210938 266.042969 172.375 267.082031 170.753906 266.9375 C 165.632812 275.011719 163.988281 284.71875 159.972656 293.316406 C 158.925781 295.300781 155.722656 294.90625 154.761719 293.039062 C 156.296875 286.570312 161.5625 281.222656 160.660156 274.148438 C 148.519531 281.316406 139.78125 297.046875 125.835938 302.070312 L 121.660156 302.070312 C 118.941406 298.988281 125 298.757812 126.804688 297.464844 C 138.394531 288.242188 148.777344 277.386719 157.933594 265.773438 C 159.785156 263.789062 160.792969 256.402344 156.605469 260.050781 C 137.175781 278.519531 114.039062 300.351562 85.222656 297.636719 C 82.789062 286.011719 94.070312 276.871094 98.6875 266.960938 C 78.363281 271.132812 57.210938 265.648438 39.140625 256.230469 C 27.050781 251.492188 18.339844 241.367188 13.917969 229.433594 C 0.0742188 220.75 9.886719 203.117188 5.257812 190.675781 L 5.257812 187.453125 C 8.289062 169.261719 22.234375 153.480469 40.433594 148.53125 C 43.203125 143.191406 36.78125 136.40625 42.484375 131.675781 C 42.304688 118.28125 49.191406 106.222656 51.484375 93.128906 C 57.097656 83.433594 54.183594 69.972656 63.847656 62.511719 C 64.011719 51.199219 72.226562 37.417969 83.082031 33.925781 C 83.582031 31.632812 82.789062 29.148438 83.679688 26.964844 C 94.601562 19.769531 104.242188 10.097656 117.742188 8.070312 M 108.558594 15.726562 C 104.832031 16.261719 102.300781 20.164062 104.195312 23.800781 C 114.417969 45.789062 122.558594 70.175781 139.886719 87.660156 C 140.886719 73.332031 128.875 59.78125 125.445312 45.492188 C 121.480469 39.371094 121.570312 30.804688 115.425781 26.210938 C 113.238281 22.835938 114.648438 14.828125 108.558594 15.726562 M 91.429688 26.886719 C 87.484375 28.058594 86.828125 33.664062 87.644531 37.148438 C 102.269531 59.289062 112.28125 84.003906 124.722656 107.328125 C 128.351562 117.589844 141.835938 125.765625 152.191406 124.257812 C 144.785156 95.695312 117.875 76.90625 110.46875 47.707031 C 103.875 40.746094 103.554688 25.910156 91.429688 26.886719 M 129.1875 35.722656 C 134.945312 64.390625 150.011719 91.523438 157.410156 120.191406 C 158.515625 142.628906 172.066406 162.261719 174.03125 184.820312 C 181.75 200.125 183.601562 217.09375 188.457031 233.285156 C 193.242188 234.769531 190.523438 228.203125 190.90625 225.667969 C 187.113281 204.222656 180.617188 183.34375 176.09375 162.070312 C 169.925781 149.75 172.492188 134.886719 164.929688 123.082031 C 154.804688 95.792969 144.246094 68.90625 133.554688 41.78125 C 132.414062 39.648438 131.679688 36.597656 129.1875 35.722656 M 80.421875 41.058594 C 74.34375 46.855469 65.683594 54.050781 69.515625 63.554688 C 87.246094 83.160156 99.203125 106.867188 114.03125 128.730469 C 124.664062 135.09375 129.523438 119.796875 123.011719 113.46875 C 114.957031 100.410156 109.28125 85.988281 103.179688 72.113281 C 92.789062 63.789062 92.972656 45.207031 80.421875 41.058594 M 64.0625 72.398438 C 56.902344 82.472656 50.054688 101.351562 62.863281 110.230469 C 82.011719 123.132812 90.53125 145.519531 108.347656 159.554688 C 110.738281 160.980469 115.335938 164.335938 117.195312 160.457031 C 121.699219 137.832031 102.90625 122.421875 92.996094 104.695312 C 87.039062 93.226562 77.816406 84.085938 69.960938 73.964844 C 68.671875 72.027344 66.242188 71.703125 64.0625 72.398438 M 342.582031 73.972656 C 337.039062 76.621094 332.058594 80.761719 329.132812 86.25 C 317.328125 105.96875 297.558594 120.429688 289.253906 142.25 C 288.726562 149.769531 296.914062 140.273438 299.265625 138.460938 C 317.433594 118.765625 335.269531 98.515625 350.980469 76.710938 C 350.351562 72.660156 345.523438 73.621094 342.582031 73.972656 M 316.449219 77.816406 C 308.972656 79.726562 300.378906 82.621094 297.863281 90.820312 C 291.0625 107.640625 283.328125 124.15625 272.796875 138.816406 C 281.175781 140.21875 289.417969 129.871094 292.257812 121.820312 C 303.121094 107.648438 319.324219 97.292969 325.601562 79.644531 C 325.398438 75.4375 318.917969 78.046875 316.449219 77.816406 M 292.292969 85.269531 C 285.46875 87.152344 277.105469 89.464844 275.195312 97.292969 C 269.894531 111.878906 257.484375 122.976562 254.664062 138.527344 C 257.796875 141.539062 262.414062 139.265625 265.75 137.953125 C 277.597656 124.992188 283.410156 107.820312 290.964844 92.15625 C 292.332031 90.835938 296.765625 84.097656 292.292969 85.269531 M 348.292969 91.179688 C 331.761719 111.164062 313.691406 130.3125 296.175781 149.585938 C 266.289062 171.457031 239.304688 196.789062 216.8125 226.269531 C 216.441406 228.996094 221.464844 226.421875 221.703125 225.269531 C 245.074219 203.527344 268.265625 181.613281 292.308594 160.621094 C 311.429688 138.726562 331.464844 117.582031 349.585938 94.84375 C 350.046875 93.53125 350.675781 89.644531 348.292969 91.179688 M 266.636719 98.613281 C 255.707031 101.992188 242.214844 106.121094 239.339844 118.511719 C 240.117188 131.316406 230.851562 143.109375 233.75 155.84375 C 247.898438 147.691406 248.71875 127.632812 259.984375 116.347656 C 261.53125 110.722656 269.289062 102.484375 266.636719 98.613281 M 53.355469 112.96875 C 48.414062 123.289062 48.28125 136.234375 47.914062 147.855469 C 73.015625 159 96.28125 177.121094 116.457031 196.132812 C 118.152344 198.863281 124.320312 200.824219 124.664062 196.273438 C 118.914062 188.425781 117.972656 177.96875 111.386719 170.628906 C 93.804688 149.9375 77.121094 126.296875 53.355469 112.96875 M 230.261719 118.007812 C 220.957031 121.191406 211.96875 128.109375 207.660156 136.878906 C 211.460938 162.292969 207.71875 188.5 200.648438 213.128906 C 213.6875 186.589844 226.648438 158.84375 233.078125 129.652344 C 231.910156 126.820312 235.742188 116.671875 230.261719 118.007812 M 193.25 121.109375 C 181.601562 123.15625 178.988281 145.71875 185.441406 149.726562 C 190.90625 140.027344 202.171875 134.445312 206.0625 123.871094 C 202.816406 120.5 197.558594 120.289062 193.25 121.109375 M 129.46875 123.839844 C 122.035156 133.175781 133.40625 141.621094 135.046875 150.734375 C 142.371094 163.515625 149.09375 176.589844 154.371094 190.355469 C 161.761719 206.996094 176.785156 219.375 181.707031 237.03125 C 186.484375 237.582031 182.804688 231.34375 182.132812 229.023438 C 174.671875 197.199219 167.550781 164.816406 153.328125 135.429688 C 145.84375 131.101562 137.496094 126.78125 129.46875 123.839844 M 178.347656 125.519531 C 171.113281 126.027344 169.796875 140.210938 176.777344 140.070312 C 174.972656 135.765625 187.402344 123.691406 178.347656 125.519531 M 124.304688 139.535156 C 116.949219 153.1875 128.304688 168.3125 140.238281 174.238281 C 142.746094 169.269531 136.371094 163.769531 135.300781 158.667969 C 131.835938 152.515625 131.03125 142.035156 124.304688 139.535156 M 200.425781 142.652344 C 183.253906 148.355469 184.6875 172.1875 189.671875 185 C 194.617188 178.769531 189.5 166.523438 193.445312 160.1875 C 199.425781 171.820312 189.5 191.925781 197.101562 202.914062 C 204.703125 187.246094 204.179688 169.179688 204.089844 152.1875 C 203.210938 149.710938 205.234375 141.535156 200.425781 142.652344 M 253.453125 145.078125 C 244.597656 147.785156 242.558594 158.390625 235.078125 163.136719 C 217.269531 175.261719 216.890625 198.527344 206.210938 215.636719 C 205.015625 222.40625 198.601562 233.351562 205.367188 238.070312 C 217.039062 214.019531 237.296875 195.363281 255.058594 175.640625 C 264.882812 167.984375 278.308594 161.078125 279.332031 147.128906 C 272.007812 143.191406 261.949219 145.75 253.453125 145.078125 M 37.191406 154.75 C 30.933594 155.667969 30.253906 161.679688 37.058594 162.136719 C 44.335938 167.484375 44.988281 150.949219 37.191406 154.75 M 49.070312 156.742188 C 43.097656 161.710938 51.832031 170.785156 53.929688 176.53125 C 84.953125 198.28125 116.417969 225.324219 154.664062 231.234375 C 116.828125 210.4375 91.191406 169.484375 49.070312 156.742188 M 25.253906 162.070312 C 19.324219 163.816406 15.441406 170.910156 16.917969 176.761719 C 27.1875 181.550781 38.625 182.871094 49.363281 186.289062 C 50.460938 173.5 37.238281 162.671875 25.253906 162.070312 M 122.714844 166.335938 C 117.441406 175.203125 125.117188 184.351562 128.402344 192.417969 C 132.597656 200.476562 132.335938 211.414062 140.347656 217.078125 C 154.019531 223.511719 165.273438 234.449219 179.199219 240.023438 C 163.242188 214.332031 147.234375 184.359375 122.714844 166.335938 M 17.695312 182.230469 C 5.847656 184.164062 9.183594 198.265625 11.460938 206.371094 C 26.886719 206.632812 43.351562 208.4375 58.253906 214.011719 C 65.050781 212.855469 68.46875 205.042969 61.585938 200.9375 C 57.292969 187.851562 41.867188 189.707031 31.457031 184.960938 C 27.695312 181.707031 22.386719 181.804688 17.695312 182.230469 M 61.621094 188.835938 C 58.703125 194.296875 69.949219 197.722656 71.671875 202.855469 C 79.765625 207.542969 86.53125 214.855469 95.714844 217.621094 C 116.246094 228.726562 138.828125 241.628906 163.257812 240.8125 C 166.207031 239.507812 162.949219 234.898438 160.128906 237.589844 C 144.484375 237.046875 130.628906 228.128906 116.417969 222.324219 C 96.304688 214.5625 80.289062 197.863281 61.621094 188.835938 M 22.230469 211.355469 C 14.007812 210.929688 8.296875 216.203125 13.714844 223.449219 C 19.667969 224.859375 19.503906 234.890625 26.507812 233.121094 C 36.929688 230.628906 47.1875 225.839844 58.164062 228.25 C 61.808594 230.523438 65.140625 224.839844 60.726562 223.585938 C 50.183594 214.914062 35.898438 210.09375 22.230469 211.355469 M 69.28125 211.347656 C 56.648438 217.375 71.632812 227.34375 76.003906 233.816406 C 90.160156 234.089844 104.742188 232.136719 118.785156 235.753906 C 111.371094 230.507812 100.828125 230.980469 93.542969 225.003906 C 85.066406 221.472656 78.773438 211.324219 69.28125 211.347656 M 50.324219 232.449219 C 42.335938 232.777344 32.070312 232.5625 26.304688 238.84375 C 29.875 245.664062 40.550781 251.621094 48.003906 246.285156 C 54.34375 242.433594 62.421875 242.0625 68.574219 238.328125 C 68.171875 230.285156 55.664062 232.753906 50.324219 232.449219 M 94.460938 235.949219 C 91.839844 237.589844 88.71875 238.210938 86.046875 239.613281 C 85.949219 243.023438 90.667969 244.769531 91.628906 248.121094 C 107.035156 244.464844 122.960938 242.992188 138.820312 243.984375 C 141.5 247.695312 144.394531 241.695312 141.304688 242.230469 C 125.632812 240.292969 110.164062 236.417969 94.460938 235.949219 M 73.734375 240.644531 C 64.207031 244.03125 54.984375 248.214844 45.726562 252.238281 C 42.886719 254.953125 48.800781 255.804688 50.625 256.714844 C 63.25 265.109375 76.105469 254.910156 88.398438 251.523438 C 90.414062 248.164062 84.6875 247.730469 82.871094 246.195312 C 78.796875 245.464844 78.832031 238.179688 73.734375 240.644531 M 129.53125 245.695312 C 117.335938 245.558594 106.03125 249.925781 94.152344 253.03125 C 93.109375 259.902344 101.5 263.320312 105.90625 258.527344 C 112.097656 258.917969 118.242188 257.007812 122.960938 253.132812 C 126.78125 254.664062 136.542969 246.15625 129.53125 245.695312 M 87.746094 255.484375 C 84.015625 256.410156 76.890625 257.066406 76.980469 261.640625 C 82.707031 267.839844 102.046875 258.484375 87.746094 255.484375 Z M 87.746094 255.484375 "/>
</g>
</g>
</svg>
